<?xml version="1.0" standalone="no"?>
<!DOCTYPE svg PUBLIC "-//W3C//DTD SVG 20010904//EN"
 "http://www.w3.org/TR/2001/REC-SVG-20010904/DTD/svg10.dtd">
<svg version="1.0" xmlns="http://www.w3.org/2000/svg"
 width="600.000000pt" height="600.000000pt" viewBox="0 0 600.000000 600.000000"
 preserveAspectRatio="xMidYMid meet">
<metadata>
Created by potrace 1.11, written by Peter Selinger 2001-2013
</metadata>
<g transform="translate(0.000000,600.000000) scale(0.100000,-0.100000)"
fill="#000000" stroke="none">
<path d="M1646 5600 c-8 -22 -18 -54 -21 -72 -3 -18 -7 -44 -10 -58 -2 -14 -7
-47 -10 -74 -6 -57 -9 -63 -29 -47 -11 10 -53 192 -48 213 3 13 -26 28 -42 22
-15 -6 -16 -16 -10 -83 12 -113 8 -165 -17 -218 -36 -80 -55 -155 -58 -223 -2
-58 -6 -69 -36 -100 -45 -48 -189 -280 -258 -416 -31 -62 -73 -160 -93 -220
-20 -59 -50 -129 -66 -155 -46 -75 -45 -110 6 -152 37 -31 154 -78 230 -93 37
-7 130 -23 170 -29 21 -3 43 -8 48 -11 5 -3 24 -8 41 -11 35 -5 102 -19 282
-59 111 -24 127 -25 206 -15 48 6 103 11 123 11 111 0 133 -107 82 -395 -15
-82 -30 -157 -33 -165 -22 -53 -23 -170 -2 -256 27 -113 19 -244 -20 -360 -28
-80 -36 -94 -86 -137 -53 -47 -56 -52 -94 -170 -35 -108 -58 -168 -107 -272
-7 -16 -23 -57 -34 -90 -19 -56 -19 -61 -4 -72 9 -7 22 -14 27 -16 8 -2 7 -22
-3 -62 -16 -69 -71 -135 -112 -135 -21 0 -82 36 -97 58 -3 5 -26 17 -51 27
-39 16 -71 18 -245 17 -110 -1 -207 -5 -216 -7 -13 -4 -18 3 -23 28 -4 19 -16
43 -27 53 -11 10 -32 42 -45 70 -29 61 -53 80 -118 89 -44 7 -52 4 -147 -49
-55 -31 -103 -56 -108 -56 -5 0 -6 -11 -4 -24 7 -37 -91 -107 -229 -161 -149
-60 -147 -58 -217 -127 -41 -41 -73 -84 -98 -136 -33 -66 -38 -85 -38 -146 0
-86 17 -129 57 -149 49 -24 95 -12 173 43 115 82 197 127 245 134 25 4 61 10
80 13 50 10 234 9 305 0 57 -8 63 -6 89 18 48 44 86 38 201 -32 55 -33 135
-74 177 -91 83 -34 179 -82 162 -82 -20 0 -101 -126 -113 -177 -16 -64 -52
-100 -114 -112 -25 -4 -48 -7 -50 -5 -7 7 -161 -166 -191 -214 -89 -142 -92
-235 -10 -289 54 -35 92 -24 185 50 116 94 187 127 264 126 33 -1 71 3 85 8
14 5 49 9 78 9 51 -1 54 0 94 46 41 48 64 59 148 73 19 3 53 10 75 15 22 5 54
11 70 14 17 3 44 9 60 14 17 5 140 7 275 5 455 -7 492 -7 531 10 68 30 145
134 219 297 14 31 35 65 48 78 12 12 22 32 23 45 5 107 12 127 74 232 65 108
103 197 155 365 35 110 46 151 65 235 11 47 25 123 30 160 3 22 7 51 10 65 21
135 26 350 10 500 -10 98 -9 92 -2 190 9 106 9 148 1 296 -6 123 -5 136 21
223 29 99 37 241 22 381 -27 259 -27 321 2 460 4 19 7 86 7 148 l-1 112 30 14
c80 37 108 44 221 49 65 3 128 2 139 -2 16 -7 27 0 54 32 40 45 84 67 138 67
21 0 70 11 108 24 41 14 109 26 165 30 52 4 104 9 115 11 11 2 40 7 65 10 25
3 54 7 65 9 11 2 43 7 70 10 93 13 170 35 279 80 167 71 213 70 320 -4 25 -16
105 -52 179 -79 168 -62 220 -69 232 -31 9 28 -10 48 -54 56 -80 15 -119 52
-102 97 12 31 34 38 160 52 30 4 61 8 70 10 9 1 40 6 70 10 57 8 91 32 91 64
0 11 4 22 9 26 14 8 5 65 -12 82 -29 29 -313 34 -487 8 -14 -2 -70 -6 -125
-10 -97 -5 -123 -9 -175 -22 -36 -8 -116 -8 -260 1 -295 18 -411 11 -609 -40
-264 -68 -273 -69 -736 -65 -164 2 -182 -1 -294 -43 -36 -14 -84 -27 -105 -31
-21 -3 -48 -7 -60 -10 -12 -2 -37 -7 -56 -9 -20 -3 -63 -12 -98 -20 -46 -11
-64 -11 -69 -3 -23 35 -37 67 -48 109 -11 40 -11 54 2 90 19 55 13 139 -21
277 -32 129 -40 141 -127 189 -69 39 -128 54 -205 54 -74 0 -102 -14 -171 -81
-48 -47 -62 -66 -95 -131 -23 -47 -13 -274 15 -309 6 -9 39 -50 73 -91 66 -81
71 -90 79 -164 4 -28 8 -53 11 -58 9 -14 -73 -88 -137 -122 -35 -19 -99 -46
-143 -60 -81 -26 -114 -47 -193 -121 -59 -56 -107 -78 -213 -100 -47 -9 -125
-29 -175 -45 -142 -44 -135 -43 -130 -28 3 8 7 61 8 119 l2 104 93 189 c66
135 103 200 130 225 l38 36 105 3 c157 3 189 13 189 58 0 34 -34 48 -120 49
l-75 0 -3 32 c-3 26 9 49 64 125 63 87 103 160 109 197 3 18 -12 41 -26 41
-10 0 -99 -133 -99 -147 0 -16 -22 -32 -36 -26 -20 7 -18 14 25 90 56 97 63
181 15 171 -12 -2 -38 -42 -75 -117 -31 -62 -62 -117 -70 -121 -30 -19 -32 2
-10 130 17 100 19 133 9 153 -15 28 -35 20 -52 -23z m989 -3661 c-5 -36 -5
-34 -41 -154 -15 -49 -36 -108 -46 -129 -26 -51 -19 -94 27 -163 l36 -55 -36
-106 c-20 -59 -40 -110 -43 -113 -4 -4 -53 -9 -109 -12 -80 -5 -126 -14 -205
-40 -57 -19 -148 -49 -203 -67 -55 -18 -119 -42 -142 -55 l-41 -23 -4 23 c-4
19 2 24 46 35 174 43 261 134 371 383 34 80 48 101 62 99 69 -11 108 11 168
98 19 28 83 166 93 200 4 16 42 97 48 103 15 15 22 6 19 -24z"/>
</g>
</svg>
